<?xml version="1.0" ?><svg height="517px" version="1.1" viewBox="0 0 434 517" width="434px" xmlns="http://www.w3.org/2000/svg" xmlns:sketch="http://www.bohemiancoding.com/sketch/ns" xmlns:xlink="http://www.w3.org/1999/xlink"><title/><desc/><defs/><g fill="none" fill-rule="evenodd" id="Page-1" stroke="none" stroke-width="1"><path d="M236.651523,122.458353 C247.967995,127.572191 259.664025,132.934894 262.138318,133.923664 C266.824994,135.79654 265.206609,148.956904 260.860768,155.334693 C256.514927,161.712482 224.383721,180.767965 214.0698,184.00553 C203.75588,187.243096 195.725783,186.232901 187.808525,183.08338 C179.891268,179.933859 159.581075,159.989466 156.626401,155.334693 C153.671728,150.67992 153.711917,142.672506 156.626401,138.820173 C159.540886,134.967841 188.44073,113.844888 192.849942,112.040748 C197.259154,110.236608 208.460327,110.79963 214.0698,112.642385 C216.321708,113.382155 223.756989,116.655825 232.154237,120.43089 C228.168148,117.548211 225.491241,112.205397 225.491241,106.090794 C225.491241,96.9184656 231.514838,89.482824 238.945323,89.482824 C246.375808,89.482824 252.399406,96.9184656 252.399406,106.090794 C252.399406,115.263123 246.375808,122.698765 238.945323,122.698765 C238.163348,122.698765 237.396955,122.616414 236.651523,122.458353 L236.651523,122.458353 L236.651523,122.458353 Z M159.234815,164.442184 C156.546485,160.353913 154.535586,157.17523 153.73307,155.917912 C150.602445,151.013098 150.645027,142.575548 153.73307,138.51628 C154.759928,137.166463 158.831203,133.804378 163.980426,129.847648 C158.182179,124.567307 154.263745,114.490412 154.263745,102.927371 C154.263745,85.8930466 162.767648,72.083998 173.257744,72.083998 C183.747839,72.083998 192.251742,85.8930466 192.251742,102.927371 C192.251742,105.539549 192.051768,108.075882 191.675323,110.498205 L191.675323,110.498205 C191.83999,110.417001 191.986487,110.35012 192.113733,110.298341 C196.543363,108.495825 207.442727,108.935753 213.627104,110.641386 C213.105827,108.175892 212.828575,105.591064 212.828575,102.927371 C212.828575,85.8930466 224.167112,72.083998 238.153906,72.083998 C252.140701,72.083998 263.479238,85.8930466 263.479238,102.927371 C263.479238,113.16098 259.386964,122.23053 253.086694,127.841184 C259.198121,130.596787 264.007369,132.75232 265.528251,133.356744 C270.49402,135.330226 268.779259,149.197527 264.174622,155.917912 C263.708523,156.598176 262.940773,157.549832 261.925883,158.714506 C264.100206,163.571519 276.683488,191.851195 288.192454,221.357245 C300.841209,253.785419 312.728688,267.531944 315.56434,292.375163 C319.137541,323.680065 319.383621,345.357432 318.333309,359.946141 C329.109385,366.72684 320.210186,389.342102 341.477826,389.980197 C365.613392,390.70434 378.212767,361.112785 392.568602,361.616797 C395.749348,352.910741 399.625139,337.895506 397.366218,320.281403 C393.778565,292.306426 370.946505,251.311678 370.946505,251.311678 C370.946505,251.311678 324.332562,182.550911 314.508607,163.460272 C304.684653,144.369634 304.746341,132.591294 302.439504,118.183781 C300.132667,103.776268 302.439504,104.3886 302.439504,88.0818345 C302.439504,71.775069 297.170091,59.3422623 297.170091,59.3422623 C297.170091,59.3422623 279.290568,-1.89345029 215.125538,0.045073018 C150.960508,1.98359633 145.8163,59.3422618 145.8163,59.3422618 C145.8163,59.3422618 145.919118,168.386243 145.919118,177.891051 C145.919118,187.395858 142.680763,186.132802 135.517063,197.142693 C128.353364,208.152584 110.184502,228.861308 99.5416133,249.115211 C92.2056767,263.075833 88.2577435,275.004924 80.2894766,295.292227 C72.3212096,315.57953 61.1795475,328.25019 61.1795475,340.12385 C61.1795475,346.040585 62.7409369,350.27583 64.3076112,353.288865 C68.6258188,347.920115 73.7219761,344.138369 81.634285,344.138369 C93.613703,344.138369 122.467653,389.404321 145.919117,426.424029 C147.504904,428.9273 149.075874,431.372626 150.619583,433.748762 C154.245475,434.435218 166.574757,435.691239 166.574757,421.026692 C166.574757,403.834075 101.165409,358.128947 101.165409,358.128947 C101.165409,358.128947 97.7879762,326.403584 105.38063,303.037813 C112.973283,279.672042 127.259744,257.390609 127.259744,257.390609 C127.259744,257.390609 132.451057,234.950802 141.265654,215.983442 C150.080251,197.016081 158.37772,192.098672 158.37772,192.098672 L159.234815,164.442184 L159.234815,164.442184 L159.234815,164.442184 Z M170.251069,462.906988 C173.663296,467.895287 175.929578,471.279563 176.482741,472.547298 C179.549603,479.575919 177.654499,489.415989 173.746207,496.299869 C189.481212,493.138475 209.014503,490.264423 228.027442,490.264423 C245.507763,490.264423 265.650116,492.6938 283.259506,495.542312 C281.216746,480.979763 282.750465,461.818481 285.187751,440.815751 C285.60824,437.192282 285.980392,433.862958 286.310062,430.789632 C275.19586,442.833405 260.458059,453.595014 241.289427,458.877325 C197.617226,470.912099 176.000256,465.06087 170.251069,462.906988 L170.251069,462.906988 L170.251069,462.906988 Z M136.940689,516.285419 C123.777207,518.509701 121.146445,513.717991 80.6233584,501.676213 C60.5032641,495.697357 34.2216648,492.876116 22.0987145,488.908218 C9.97576423,484.94032 2.55907109,481.246803 0.268290895,475.375626 C-0.866222639,472.467914 1.92484582,462.931295 2.55907106,442.52731 C3.1932963,422.123324 0.0199898369,406.542143 2.55907121,401.677758 C9.55661594,388.271826 28.1780896,395.91625 43.8734917,383.608558 C59.5688939,371.300865 61.678823,348.96537 80.6233584,348.96537 C92.1115118,348.96537 119.782189,391.854034 142.271931,426.929534 C156.86889,449.695275 170.156719,467.402858 171.582169,470.630492 C175.20383,478.830986 171.609992,491.070714 166.080896,497.145784 C160.5518,503.220853 149.196741,514.214469 136.940689,516.285419 L136.940689,516.285419 L136.940689,516.285419 Z M159.672273,152.467841 C159.204688,153.057121 178.110141,167.260526 197.51845,164.828051 C219.462096,162.077819 253.463492,138.958921 251.378444,136.601684 C249.901494,134.931928 217.225417,160.685713 196.564731,162.077819 C175.904046,163.469926 160.139858,151.878561 159.672273,152.467841 L159.672273,152.467841 L159.672273,152.467841 Z M289.701794,439.852034 C294.288225,398.220089 292.234624,398.672771 293.543469,373.225889 C293.543469,373.225889 292.442303,359.433237 311.477895,360.505254 C330.513487,361.577271 311.459325,391.083768 339.150227,393.448893 C366.84113,395.814018 374.363068,365.634904 387.722907,367.228334 C401.082746,368.821765 390.186075,381.498278 397.14661,399.253229 C403.145276,414.554642 436.560456,425.549845 433.12039,440.212984 C429.680325,454.876122 418.400079,452.679539 383.36763,479.421333 C348.33518,506.163127 357.79322,517.531947 311.219978,516.108116 C284.288311,515.284764 285.115364,481.483979 289.701794,439.852034 L289.701794,439.852034 L289.701794,439.852034 Z M173.257744,122.698765 C179.376966,122.698765 184.337576,115.617201 184.337576,106.88165 C184.337576,98.1460989 179.376966,91.0645355 173.257744,91.0645355 C167.138521,91.0645355 162.177911,98.1460989 162.177911,106.88165 C162.177911,115.617201 167.138521,122.698765 173.257744,122.698765 L173.257744,122.698765 L173.257744,122.698765 Z M177.792932,111.334075 C180.747219,111.334075 180.124674,104.81608 177.792932,100.555963 C175.46119,96.2958457 171.520261,94.5684197 170.437935,96.6360523 C169.286749,98.8352338 172.702438,104.735867 172.702438,104.735867 C172.702438,104.735867 174.838645,111.334076 177.792932,111.334075 L177.792932,111.334075 L177.792932,111.334075 Z M245.08112,104.845042 C246.676319,104.328252 247.234607,101.877515 245.08112,97.9798892 C242.927634,94.0822634 239.727852,93.2131298 238.499765,95.0543408 C237.392319,96.7146812 240.544,100.616698 240.544,100.616698 C240.544,100.616698 243.485921,105.361832 245.08112,104.845042 L245.08112,104.845042 L245.08112,104.845042 Z" fill="#4A4A4A" id="linux"/></g></svg>
